# Blender v2.93.5 OBJ File: ''
# www.blender.org
mtllib wall2.mtl
o Cube
v 1.000000 3.154011 -1.000000
v 1.000000 -0.004367 -1.000000
v 0.801936 3.206504 0.605436
v 1.000000 -0.004367 1.000000
v -0.748799 2.641714 -0.862908
v -1.000000 -0.004367 -1.000000
v -0.605099 3.511740 0.721008
v -1.000000 -0.004367 1.000000
vt 0.875000 0.500000
vt 0.625000 0.750000
vt 0.625000 0.500000
vt 0.375000 0.750000
vt 0.625000 1.000000
vt 0.375000 1.000000
vt 0.375000 0.000000
vt 0.625000 0.250000
vt 0.375000 0.250000
vt 0.375000 0.500000
vt 0.125000 0.750000
vt 0.125000 0.500000
vt 0.875000 0.750000
vt 0.625000 0.000000
vn -0.2853 0.9561 -0.0665
vn 0.0000 0.0791 0.9969
vn -0.9955 0.0945 0.0000
vn 0.0000 -1.0000 0.0000
vn 0.9981 0.0616 0.0000
vn 0.0000 0.0517 -0.9987
vn 0.1469 0.8613 -0.4864
vn 0.1087 0.1278 0.9858
vn -0.9931 0.1137 0.0276
vn 0.9925 0.0000 0.1224
vn -0.0782 0.0000 -0.9969
usemtl Material
s off
f 5/1/1 3/2/1 1/3/1
f 4/4/2 7/5/2 8/6/2
f 8/7/3 5/8/3 6/9/3
f 2/10/4 8/11/4 6/12/4
f 2/10/5 3/2/5 4/4/5
f 5/8/6 2/10/6 6/9/6
f 5/1/7 7/13/7 3/2/7
f 4/4/8 3/2/8 7/5/8
f 8/7/9 7/14/9 5/8/9
f 2/10/4 4/4/4 8/11/4
f 2/10/10 1/3/10 3/2/10
f 5/8/11 1/3/11 2/10/11
